<?xml version="1.0" standalone="no"?>
<!DOCTYPE svg PUBLIC "-//W3C//DTD SVG 20010904//EN"
 "http://www.w3.org/TR/2001/REC-SVG-20010904/DTD/svg10.dtd">
<svg version="1.0" xmlns="http://www.w3.org/2000/svg"
 width="30.000000pt" height="30.000000pt" viewBox="0 0 30.000000 30.000000"
 preserveAspectRatio="xMidYMid meet">

<g transform="translate(0.000000,30.000000) scale(0.100000,-0.100000)"
fill="#000000" stroke="none">
<path d="M203 164 c-3 -9 -9 -30 -13 -48 l-8 -31 -7 32 c-5 21 -12 30 -21 26
-7 -3 -21 3 -31 13 -17 16 -18 16 -21 1 -4 -22 -19 -22 -26 1 -3 9 -4 -2 -2
-26 5 -49 13 -63 25 -43 6 9 10 4 14 -17 5 -24 11 -29 37 -29 25 0 35 7 48 31
9 17 15 38 14 48 -2 9 2 19 8 23 13 8 13 35 0 35 -6 0 -13 -7 -17 -16z m-47
-91 c-10 -10 -19 5 -10 18 6 11 8 11 12 0 2 -7 1 -15 -2 -18z"/>
</g>
</svg>
